<svg width="512" height="512" viewBox="0 0 512 512" fill="none" xmlns="http://www.w3.org/2000/svg">
<g clip-path="url(#clip0)">
<path d="M112.915 457.85C87.5529 485.702 40.562 467.947 40.562 429.843C40.562 406.854 59.1834 388.248 82.1563 388.248C118.379 388.248 137.048 431.35 112.915 457.85Z" fill="#16BDCA"/>
<path d="M471.437 429.843C471.437 467.945 424.451 485.708 399.084 457.85C374.918 431.312 393.662 388.248 429.843 388.248C452.828 388.248 471.437 406.875 471.437 429.843Z" fill="#16BDCA"/>
<path d="M255.999 123.751C328.544 123.751 388.248 183.455 388.248 255.999C388.248 328.544 328.544 388.248 255.999 388.248C183.455 388.248 123.751 328.544 123.751 255.999C123.751 183.455 183.455 123.751 255.999 123.751V123.751Z" fill="#7EDCE2"/>
<path d="M281.419 126.236C304.764 130.857 304.798 164.232 281.563 169.378C223.312 182.279 176.647 234.35 177.08 299.537C177.24 323.604 144.469 330.639 134.792 308.604C96.3827 221.142 162.191 123.751 256.001 123.751C264.684 123.751 273.183 124.606 281.419 126.236V126.236Z" fill="#AFECEF"/>
<path d="M123.751 82.1564C123.751 118.415 80.5971 137.036 54.1281 112.894C26.3047 87.4922 44.0719 40.562 82.1563 40.562C105.064 40.562 123.751 59.0928 123.751 82.1564V82.1564Z" fill="#16BDCA"/>
<path d="M429.843 40.562C467.929 40.562 485.698 87.4879 457.871 112.894C431.442 136.999 388.248 118.459 388.248 82.1564C388.248 59.079 406.948 40.562 429.843 40.562V40.562Z" fill="#16BDCA"/>
<path d="M86.8587 65.3511C77.4455 69.5702 69.7197 77.2161 65.4312 86.6101C59.5845 99.4169 40.3412 95.5454 40.5684 81.4694C40.9289 59.1685 58.9926 41.2413 80.8701 40.5811C94.9802 40.1556 99.7401 59.5759 86.8587 65.3511V65.3511Z" fill="#7EDCE2"/>
<path d="M434.542 65.3511C425.129 69.5702 417.403 77.2161 413.114 86.6101C407.268 99.4169 388.024 95.5454 388.252 81.4694C388.612 59.1685 406.676 41.2413 428.553 40.5811C442.663 40.1556 447.423 59.5759 434.542 65.3511V65.3511Z" fill="#7EDCE2"/>
<path d="M86.8587 413.024C77.4455 417.244 69.7197 424.89 65.4312 434.283C59.5845 447.09 40.3412 443.219 40.5684 429.143C40.9289 406.842 58.9926 388.915 80.8701 388.254C94.9802 387.829 99.7401 407.25 86.8587 413.024V413.024Z" fill="#7EDCE2"/>
<path d="M434.542 413.024C425.129 417.244 417.403 424.89 413.114 434.283C407.268 447.09 388.024 443.219 388.252 429.143C388.612 406.842 406.676 388.915 428.553 388.254C442.663 387.829 447.423 407.25 434.542 413.024Z" fill="#7EDCE2"/>
<path d="M240.915 302.732C240.915 311.069 247.66 317.817 255.999 317.817C264.336 317.817 271.084 311.072 271.084 302.732C271.084 294.395 264.339 287.646 255.999 287.646C247.662 287.647 240.915 294.393 240.915 302.732ZM283.575 275.156C268.37 259.951 243.629 259.951 228.423 275.156C225.092 278.488 219.69 278.488 216.358 275.156C213.025 271.825 213.025 266.423 216.358 263.091C238.216 241.232 273.784 241.232 295.642 263.091C301.034 268.482 297.14 277.656 289.609 277.656C287.426 277.655 285.241 276.822 283.575 275.156ZM315.656 243.075C282.684 210.103 229.317 210.101 196.342 243.075C193.011 246.407 187.609 246.407 184.277 243.075C180.944 239.744 180.944 234.342 184.277 231.01C223.917 191.368 288.078 191.364 327.723 231.01C333.115 236.401 329.221 245.575 321.69 245.575C319.505 245.574 317.322 244.742 315.656 243.075ZM255.999 132.283C187.783 132.283 132.283 187.783 132.283 256C132.283 324.216 187.783 379.716 255.999 379.716C307.167 379.716 353.692 347.568 371.771 299.721C373.437 295.314 378.359 293.088 382.768 294.755C387.176 296.421 389.4 301.344 387.734 305.752C367.417 359.523 315.716 396.78 255.999 396.78C178.373 396.78 115.218 333.626 115.218 256C115.218 178.373 178.373 115.219 255.999 115.219C333.626 115.219 396.78 178.373 396.78 256C396.78 260.711 392.96 264.532 388.248 264.532C383.536 264.532 379.716 260.711 379.716 256C379.716 187.782 324.217 132.283 255.999 132.283ZM56.1811 386.984C4.06445 307.707 3.99406 204.395 56.1801 125.012C89.3265 145.179 132.284 121.252 132.284 82.1553C132.284 72.6526 129.626 63.7589 125.014 56.178C194.127 10.7421 281.106 5.08096 354.353 38.2146C358.647 40.1578 363.702 38.2509 365.643 33.957C367.585 29.6632 365.679 24.6079 361.386 22.6668C282.258 -13.1256 188.162 -6.71798 113.687 43.2241C105.068 36.2309 94.096 32.0288 82.1573 32.0288C39.9465 32.0288 16.8446 81.172 43.2261 113.685C-14.3917 199.61 -14.4237 312.34 43.2261 398.313C16.8446 430.827 39.9455 479.969 82.1573 479.969C109.797 479.969 132.284 457.483 132.284 429.843C132.283 390.73 89.3105 366.831 56.1811 386.984ZM82.1563 49.0942C100.386 49.0942 115.218 63.9263 115.218 82.1564C115.218 100.386 100.386 115.219 82.1563 115.219C63.9262 115.219 49.0941 100.386 49.0941 82.1564C49.0941 63.9263 63.9262 49.0942 82.1563 49.0942ZM82.1563 462.905C63.9262 462.905 49.0941 448.073 49.0941 429.843C49.0941 411.613 63.9262 396.78 82.1563 396.78C100.386 396.78 115.218 411.613 115.218 429.843C115.218 448.073 100.387 462.905 82.1563 462.905ZM468.774 113.685C495.155 81.1741 472.057 32.0288 429.843 32.0288C402.203 32.0288 379.716 54.5153 379.716 82.1553C379.716 121.269 422.69 145.168 455.819 125.012C507.933 204.285 508.005 307.603 455.819 386.984C422.672 366.819 379.716 390.745 379.716 429.842C379.716 439.344 382.374 448.237 386.985 455.817C316.976 501.84 228.559 507.123 154.54 472.349C150.274 470.346 145.193 472.178 143.189 476.443C141.185 480.708 143.018 485.79 147.283 487.794C227.373 525.42 323.028 519.256 398.314 468.774C430.828 495.155 479.969 472.052 479.969 429.843C479.969 417.904 475.767 406.933 468.774 398.313C526.393 312.389 526.425 199.657 468.774 113.685ZM396.78 82.1564C396.78 63.9263 411.612 49.0942 429.843 49.0942C448.073 49.0942 462.905 63.9263 462.905 82.1564C462.905 100.386 448.073 115.219 429.843 115.219C411.612 115.219 396.78 100.386 396.78 82.1564ZM429.843 462.905C411.612 462.905 396.78 448.073 396.78 429.843C396.78 411.613 411.612 396.78 429.843 396.78C448.073 396.78 462.905 411.613 462.905 429.843C462.905 448.073 448.074 462.905 429.843 462.905Z" fill="#4B5563"/>
</g>
<defs>
<clipPath id="clip0">
<rect width="512" height="512" fill="white"/>
</clipPath>
</defs>
</svg>
