<svg width="339" height="312" viewBox="0 0 339 312" fill="none" xmlns="http://www.w3.org/2000/svg">
<path d="M169.778 311.892L231.977 120.57H107.669L169.778 311.892Z" fill="#E24329"/>
<path d="M20.5491 120.57L1.60809 178.696C-0.105912 183.974 1.74508 189.8 6.26908 193.09L169.778 311.891L20.5491 120.57Z" fill="#FCA326"/>
<path d="M20.549 120.57H107.669L70.175 5.34605C68.256 -0.548945 59.893 -0.548945 57.905 5.34605L20.549 120.57Z" fill="#E24329"/>
<path d="M319.097 120.57L337.97 178.696C339.684 183.974 337.833 189.8 333.309 193.09L169.778 311.892L319.097 120.57Z" fill="#FCA326"/>
<path d="M319.097 120.57H231.977L269.402 5.34605C271.321 -0.548945 279.684 -0.548945 281.672 5.34605L319.097 120.57Z" fill="#E24329"/>
<path d="M169.778 311.892L231.977 120.57H319.097L169.778 311.892Z" fill="#FC6D26"/>
<path d="M169.778 311.892L20.549 120.57H107.669L169.778 311.892Z" fill="#FC6D26"/>
</svg>
