<svg width="351" height="365" viewBox="0 0 351 365" fill="none" xmlns="http://www.w3.org/2000/svg">
<path d="M342 161.2C341.4 155.1 340.4 148.1 338.4 140.3C336.4 132.6 333.4 124.1 329 115.3C324.6 106.5 318.9 97.4 311.5 88.5C308.6 85 305.4 81.6 302 78.3C307.1 58 295.8 40.4 295.8 40.4C276.3 39.2 263.9 46.5 259.3 49.8C258.5 49.5 257.8 49.1 257 48.8C253.7 47.5 250.3 46.2 246.7 45.1C243.2 44 239.6 43 235.9 42.1C232.2 41.2 228.5 40.5 224.7 39.9C224 39.8 223.4 39.7 222.7 39.6C214.2 12.4 189.8 1 189.8 1C162.5 18.3 157.4 42.5 157.4 42.5C157.4 42.5 157.3 43 157.1 43.9C155.6 44.3 154.1 44.8 152.6 45.2C150.5 45.8 148.4 46.6 146.4 47.4C144.3 48.2 142.3 49 140.2 49.9C136.1 51.7 132 53.7 128 55.9C124.1 58.1 120.3 60.5 116.6 63C116.1 62.8 115.6 62.6 115.6 62.6C77.8 48.2 44.3 65.5 44.3 65.5C41.2 105.7 59.4 131 63 135.6C62.1 138.1 61.3 140.6 60.5 143.1C57.7 152.2 55.6 161.5 54.3 171.2C54.1 172.6 53.9 174 53.8 175.4C18.8 192.7 8.5 228 8.5 228C37.6 261.5 71.6 263.6 71.6 263.6L71.7 263.5C76 271.2 81 278.5 86.6 285.4C89 288.3 91.4 291 94 293.7C83.4 324.1 95.5 349.3 95.5 349.3C127.9 350.5 149.2 335.1 153.7 331.6C156.9 332.7 160.2 333.7 163.5 334.5C173.5 337.1 183.7 338.6 193.9 339C196.4 339.1 199 339.2 201.5 339.1H202.7H203.5H205.1L206.7 339V339.1C222 360.9 248.8 364 248.8 364C267.9 343.9 269 323.9 269 319.6C269 319.6 269 319.5 269 319.3C269 318.9 269 318.7 269 318.7C269 318.4 269 318.1 269 317.8C273 315 276.8 312 280.4 308.7C288 301.8 294.7 293.9 300.3 285.4C300.8 284.6 301.3 283.8 301.8 283C323.4 284.2 338.7 269.6 338.7 269.6C335.1 247.1 322.3 236.1 319.6 234C319.6 234 319.5 233.9 319.3 233.8C319.1 233.7 319.1 233.6 319.1 233.6C319 233.5 318.8 233.4 318.6 233.3C318.7 231.9 318.8 230.6 318.9 229.2C319.1 226.8 319.1 224.3 319.1 221.9V220.1V219.2V218.7C319.1 218.1 319.1 218.3 319.1 218.1L319 216.6L318.9 214.6C318.9 213.9 318.8 213.3 318.7 212.7C318.6 212.1 318.6 211.4 318.5 210.8L318.3 208.9L318 207C317.6 204.5 317.2 202.1 316.6 199.6C314.3 189.9 310.5 180.7 305.6 172.4C300.6 164.1 294.4 156.8 287.3 150.6C280.3 144.4 272.4 139.4 264.2 135.7C255.9 132 247.3 129.6 238.7 128.5C234.4 127.9 230.1 127.7 225.8 127.8H224.2H223.8C223.7 127.8 223.2 127.8 223.3 127.8H222.6L221 127.9C220.4 127.9 219.8 128 219.3 128C217.1 128.2 214.9 128.5 212.8 128.9C204.2 130.5 196.1 133.6 189 137.9C181.9 142.2 175.7 147.5 170.7 153.5C165.7 159.5 161.8 166.2 159.1 173.1C156.4 180 154.9 187.2 154.5 194.1C154.4 195.8 154.4 197.6 154.4 199.3C154.4 199.7 154.4 200.2 154.4 200.6L154.5 202C154.6 202.8 154.6 203.7 154.7 204.5C155 208 155.7 211.4 156.6 214.6C158.5 221.1 161.5 227 165.2 232C168.9 237 173.4 241.1 178.1 244.4C182.8 247.6 187.9 249.9 192.9 251.4C197.9 252.9 202.9 253.5 207.6 253.5C208.2 253.5 208.8 253.5 209.3 253.5C209.6 253.5 209.9 253.5 210.2 253.5C210.5 253.5 210.8 253.5 211.1 253.4C211.6 253.4 212.1 253.3 212.6 253.3C212.7 253.3 212.9 253.3 213 253.2L213.5 253.1C213.8 253.1 214.1 253 214.4 253C215 252.9 215.5 252.8 216.1 252.7C216.7 252.6 217.2 252.5 217.7 252.3C218.8 252.1 219.8 251.7 220.8 251.4C222.8 250.7 224.8 249.9 226.5 249C228.3 248.1 229.9 247 231.5 246C231.9 245.7 232.4 245.4 232.8 245C234.4 243.7 234.7 241.3 233.4 239.7C232.3 238.3 230.3 237.9 228.7 238.8C228.3 239 227.9 239.2 227.5 239.4C226.1 240.1 224.7 240.7 223.2 241.2C221.7 241.7 220.1 242.1 218.5 242.4C217.7 242.5 216.9 242.6 216 242.7C215.6 242.7 215.2 242.8 214.7 242.8C214.3 242.8 213.8 242.8 213.5 242.8C213.1 242.8 212.7 242.8 212.3 242.8C211.8 242.8 211.3 242.8 210.8 242.7C210.8 242.7 210.5 242.7 210.7 242.7H210.5H210.2C210 242.7 209.7 242.7 209.5 242.6C209 242.5 208.6 242.5 208.1 242.4C204.4 241.9 200.7 240.8 197.2 239.2C193.6 237.6 190.2 235.4 187.1 232.6C184 229.8 181.3 226.5 179.2 222.7C177.1 218.9 175.6 214.7 174.9 210.3C174.6 208.1 174.4 205.8 174.5 203.6C174.5 203 174.6 202.4 174.6 201.8C174.6 202 174.6 201.7 174.6 201.7V201.5V201C174.6 200.7 174.7 200.4 174.7 200.1C174.8 198.9 175 197.7 175.2 196.5C176.9 186.9 181.7 177.5 189.1 170.4C191 168.6 193 167 195.1 165.5C197.2 164 199.5 162.7 201.9 161.6C204.3 160.5 206.7 159.6 209.3 158.9C211.8 158.2 214.4 157.8 217.1 157.5C218.4 157.4 219.7 157.3 221.1 157.3C221.5 157.3 221.7 157.3 222 157.3H223.1H223.8C224.1 157.3 223.8 157.3 223.9 157.3H224.2L225.3 157.4C228.2 157.6 231 158 233.8 158.7C239.4 159.9 244.9 162 250 164.8C260.2 170.5 268.9 179.3 274.2 189.9C276.9 195.2 278.8 200.9 279.7 206.8C279.9 208.3 280.1 209.8 280.2 211.3L280.3 212.4L280.4 213.5C280.4 213.9 280.4 214.3 280.4 214.6C280.4 215 280.4 215.4 280.4 215.7V216.7V217.8C280.4 218.5 280.3 219.7 280.3 220.4C280.2 222 280 223.7 279.8 225.3C279.6 226.9 279.3 228.5 279 230.1C278.7 231.7 278.3 233.3 277.9 234.8C277.1 237.9 276.1 241 274.9 244.1C272.5 250.1 269.3 255.9 265.5 261.2C257.8 271.8 247.3 280.4 235.3 285.9C229.3 288.6 223 290.6 216.5 291.6C213.3 292.2 210 292.5 206.7 292.6H206.1H205.6H204.5H202.9H202.1C202.5 292.6 202 292.6 202 292.6H201.7C199.9 292.6 198.2 292.5 196.4 292.3C189.4 291.8 182.5 290.5 175.7 288.6C169 286.7 162.5 284 156.3 280.8C144 274.2 132.9 265.2 124.3 254.3C120 248.9 116.2 243 113.1 236.9C110 230.8 107.5 224.3 105.7 217.8C103.9 211.2 102.8 204.5 102.3 197.7L102.2 196.4V196.1V195.8V195.2V194.1V193.8V193.4V192.6V191V190.7C102.2 190.7 102.2 190.8 102.2 190.6V190C102.2 189.2 102.2 188.3 102.2 187.5C102.3 184.2 102.6 180.7 103 177.3C103.4 173.9 104 170.4 104.7 167C105.4 163.6 106.2 160.2 107.2 156.8C109.1 150.1 111.5 143.6 114.3 137.5C120 125.3 127.4 114.4 136.3 105.7C138.5 103.5 140.8 101.5 143.2 99.5C145.6 97.6 148.1 95.8 150.7 94.1C153.2 92.4 155.9 90.9 158.6 89.5C159.9 88.8 161.3 88.1 162.7 87.5C163.4 87.2 164.1 86.9 164.8 86.6C165.5 86.3 166.2 86 166.9 85.7C169.7 84.5 172.6 83.5 175.6 82.6C176.3 82.4 177.1 82.2 177.8 81.9C178.5 81.7 179.3 81.5 180 81.3C181.5 80.9 183 80.5 184.5 80.2C185.2 80 186 79.9 186.8 79.7C187.6 79.5 188.3 79.4 189.1 79.2C189.9 79.1 190.6 78.9 191.4 78.8L192.5 78.6L193.7 78.4C194.5 78.3 195.2 78.2 196 78.1C196.9 78 197.7 77.9 198.6 77.8C199.3 77.7 200.5 77.6 201.2 77.5C201.7 77.4 202.3 77.4 202.8 77.3L203.9 77.2L204.4 77.1H205C205.9 77 206.7 77 207.6 76.9L208.9 76.8C208.9 76.8 209.4 76.8 209 76.8H209.3H209.9C210.6 76.8 211.4 76.7 212.1 76.7C215 76.6 218 76.6 220.9 76.7C226.7 76.9 232.4 77.6 237.9 78.6C249 80.7 259.4 84.2 268.9 88.9C278.4 93.5 286.8 99.2 294.2 105.4C294.7 105.8 295.1 106.2 295.6 106.6C296 107 296.5 107.4 296.9 107.8C297.8 108.6 298.6 109.4 299.5 110.2C300.4 111 301.2 111.8 302 112.6C302.8 113.4 303.6 114.2 304.4 115.1C307.5 118.4 310.4 121.7 313 125.1C318.2 131.8 322.4 138.6 325.7 145C325.9 145.4 326.1 145.8 326.3 146.2C326.5 146.6 326.7 147 326.9 147.4C327.3 148.2 327.7 149 328 149.8C328.4 150.6 328.7 151.3 329.1 152.1C329.4 152.9 329.8 153.6 330.1 154.4C331.3 157.4 332.5 160.3 333.4 163C334.9 167.4 336 171.3 336.9 174.7C337.2 176.1 338.5 177 339.9 176.8C341.4 176.7 342.5 175.5 342.5 174C342.6 170.4 342.5 166.1 342 161.2Z" fill="url(#paint0_linear)"/>
<defs>
<linearGradient id="paint0_linear" x1="192.5" y1="158" x2="250.5" y2="398" gradientUnits="userSpaceOnUse">
<stop stop-color="#F05A28"/>
<stop offset="1" stop-color="#FBCA0A"/>
</linearGradient>
</defs>
</svg>
