<svg width="99" height="100" viewBox="0 0 99 100" fill="none" xmlns="http://www.w3.org/2000/svg">
<path d="M98.4686 60.1792L88.9144 18.75C88.3811 16.5167 86.3269 14.1958 84.0061 13.5708L40.5227 0.179167C39.9852 0 39.3602 0 38.6477 0C36.7727 0 34.8977 0.7125 33.5561 1.875L2.39774 30.8917C0.697741 32.4167 -0.193926 35.4458 0.343574 37.5875L10.5227 81.9625C11.0561 84.1958 13.1102 86.5167 15.4311 87.1417L56.1477 99.8208C56.6811 100 57.3061 100 58.0227 100C59.8977 100 61.7727 99.2875 63.1102 98.125L96.4144 67.1417C98.1103 65.3583 99.0061 62.5 98.4686 60.1792ZM45.0769 10L74.9852 19.1958C76.1477 19.5542 76.1477 20.0875 74.9852 20.3583L59.2727 23.9292C58.1102 24.2875 56.4144 23.75 55.6102 22.8583L44.7186 11.0708C43.7352 10.0875 43.9144 9.64167 45.0769 10ZM63.7352 63.5708C64.0936 64.7333 63.2894 65.4458 62.1311 65.0875L29.8977 55.0875C28.7352 54.7333 28.4686 53.75 29.3602 52.9458L54.0061 30C54.8977 29.1083 55.8811 29.4625 56.1477 30.625L63.7352 63.5708ZM10.6144 34.375L36.7727 10C37.6644 9.10833 39.0061 9.2875 39.8977 10.0875L53.0227 24.2875C53.9144 25.1792 53.7352 26.5167 52.9311 27.4125L26.7727 51.7875C25.8811 52.6792 24.5394 52.5 23.6477 51.6958L10.5227 37.5C9.63107 36.5167 9.71857 35.0875 10.6102 34.375H10.6144ZM16.9561 72.9458L10.0811 42.5875C9.72274 41.4292 10.2602 41.1625 11.0602 42.0542L21.9561 53.8375C22.8477 54.7333 23.1144 56.4292 22.8477 57.5875L18.1144 72.9458C17.7602 74.1958 17.2227 74.1958 16.9561 72.9458ZM55.2602 90.8042L21.0602 80.1792C20.4838 79.9957 20.0022 79.5938 19.7187 79.0594C19.4352 78.5251 19.3723 77.901 19.5436 77.3208L25.2602 58.9292C25.4437 58.3537 25.845 57.8728 26.3784 57.5894C26.9117 57.306 27.5348 57.2425 28.1144 57.4125L62.3102 67.9458C63.4727 68.3042 64.1852 69.5542 63.8311 70.8042L58.1144 89.1958C57.9134 89.7636 57.5135 90.2393 56.9888 90.535C56.4641 90.8307 55.85 90.9263 55.2602 90.8042ZM85.6144 65.8917L62.7602 87.1417C61.8644 88.0375 61.4186 87.6792 61.7769 86.5167L66.5102 71.1625C66.8644 70 68.1144 68.75 69.3644 68.5708L85.0811 65C86.2394 64.5542 86.4186 65.0875 85.6144 65.8917ZM88.1144 61.25L69.2769 65.5375C68.1144 65.8917 66.8644 65.0875 66.5977 63.9292L58.5602 29.1083C58.2061 27.9458 59.0102 26.6958 60.1686 26.4292L79.0103 22.1417C80.1686 21.7875 81.4186 22.5875 81.6852 23.75L89.7228 58.5708C89.9894 59.9125 89.2769 61.0708 88.1144 61.25Z" fill="url(#paint0_linear)"/>
<defs>
<linearGradient id="paint0_linear" x1="43.5" y1="44" x2="74.5" y2="76" gradientUnits="userSpaceOnUse">
<stop stop-color="#22ADF6"/>
<stop offset="1" stop-color="#9394FF"/>
</linearGradient>
</defs>
</svg>
