<svg width="52" height="61" viewBox="0 0 52 61" fill="none" xmlns="http://www.w3.org/2000/svg">
<path opacity="0.98" d="M26 3.05176e-05L52 15.026V45.0093L26 60.0037L5.11569e-07 45.0084L0 15.0167L26 3.05176e-05Z" fill="#8F0000"/>
<path fill-rule="evenodd" clip-rule="evenodd" d="M25.8673 56.9527L23.2559 55.5841L2.8905 33.4026L3.24961 32.2455H13.2652L15.0959 26.1681L16.7057 28.4741L22.0866 22.4419L26.5305 21.2496L26.7295 24.3629L29.8468 24.6941L32.9641 24.7603L41.0559 24.959L42.4451 18.4371L49.3823 26.5705L49.1879 32.6204L38.4991 32.6231L38.3149 38.2258L49.4791 39.3992L49.6114 43.3585L25.8673 56.9527Z" fill="black" fill-opacity="0.19898"/>
<path opacity="0.98" d="M2.01965 33.523V43.5524C2.01964 43.718 2.10813 43.8711 2.2518 43.9539L25.7679 57.4906C25.9115 57.5733 26.0885 57.5733 26.2322 57.4906L49.712 43.953C49.8557 43.8702 49.9574 43.7171 49.9574 43.5515V40.2722V38.2056V33.5221V31.4559V16.4827C49.9574 16.3171 49.8557 16.164 49.712 16.0812L26.2322 2.54643C26.1647 2.50766 26.0887 2.48642 26.0109 2.48466C25.9257 2.48261 25.8417 2.50398 25.7679 2.54643L2.2518 16.0812C2.10813 16.164 2.01964 16.3171 2.01965 16.4827V24.7065V26.635V31.4563V33.523ZM26 3.48316L49.0286 16.7499V31.4374H39.8026C38.1699 31.4374 36.7714 32.799 36.7714 34.4297V34.8303C31.2267 34.7894 29.5732 33.3562 27.5109 31.5553C25.7967 30.0582 23.6495 28.4201 19.3309 27.7357C20.1361 26.9292 20.6204 26.0131 21.0518 25.2316C21.5155 24.3919 21.9349 23.7268 22.6057 23.2671C23.1281 22.909 24.02 22.6932 25.1747 22.6247V23.0012C25.1747 24.6318 26.4427 25.966 28.0754 25.966H39.8961C41.5288 25.966 42.9931 24.6319 42.9931 23.0012V20.1006C42.9931 18.47 41.5346 17.1562 39.9019 17.1562L28.0812 17.156C26.4485 17.156 25.1747 18.4698 25.1747 20.1004V20.6293C23.6477 20.7044 22.3479 21.0031 21.4651 21.6083C20.373 22.3569 19.7756 23.3738 19.2866 24.2592C18.7977 25.1447 18.3968 25.9066 17.8144 26.4402C17.3177 26.8951 16.622 27.2073 15.4913 27.3498C15.345 25.8509 14.04 24.7692 12.5039 24.7605H2.97116V16.75L26 3.48316ZM28.0813 19.1963H39.902C40.4533 19.1963 40.8574 19.5498 40.8574 20.1004V23.0011C40.8574 23.5516 40.4475 23.9258 39.8962 23.9258H28.0755C27.5242 23.9258 27.0758 23.5516 27.0758 23.0011V20.1004C27.0758 19.5498 27.53 19.1963 28.0812 19.1963H28.0813ZM2.97181 26.6151H12.5036C13.0549 26.6151 13.4645 27.0714 13.4645 27.622V30.5228C13.4645 31.0734 13.0549 31.4374 12.5036 31.4374H2.97181V26.6151ZM15.5484 29.4197C22.2074 29.5244 24.0443 31.1998 26.1852 33.0697C28.2397 34.8641 30.7678 36.7477 36.7718 36.827V37.3305C36.7718 38.9611 38.1701 40.2473 39.8029 40.2473H49.029V43.2841L26.0004 56.5536L2.97181 43.2841V33.4773H12.5045C14.1372 33.4773 15.5481 32.1533 15.5481 30.5227L15.5484 29.4197ZM39.8036 33.4776H49.0294V38.2071H39.8036C39.2523 38.2071 38.8151 37.83 38.8151 37.2795V34.4297C38.8151 33.8792 39.2523 33.4776 39.8036 33.4776Z" fill="white"/>
</svg>
