<svg width="514" height="213" viewBox="0 0 514 213" fill="none" xmlns="http://www.w3.org/2000/svg">
<rect x="83" width="383" height="73" rx="36.5" fill="#73230D"/>
<rect x="128" y="79" width="386" height="37" rx="18.5" fill="#73230D"/>
<rect x="30" y="124" width="386" height="51" rx="25.5" fill="#73230D"/>
<rect y="181" width="278" height="32" rx="16" fill="#73230D"/>
<path d="M156.5 206.007L136 121.007L164.748 79.4688L173.5 66.8229C179.443 54.0345 171.207 45.0443 156.5 29.0066H199.672H221.186H230.5C264.02 28.8654 278.006 30.8059 261.5 54.2923L260.5 55.7372L246.822 75.5L208.407 131.007L156.5 206.007Z" stroke="#FF5A1F" stroke-width="5"/>
<path d="M176.5 208.007L156 123.007L184.748 81.4688L193.5 68.8229C199.443 56.0345 191.207 47.0443 176.5 31.0066H219.672H241.186H250.5C284.02 30.8654 298.006 32.8059 281.5 56.2923L280.5 57.7372L266.822 77.5L228.407 133.007L176.5 208.007Z" fill="#FDF2F8"/>
<path d="M176.5 31.0066H142C190.337 41.541 253.5 81.4688 217.684 148.5L345.5 105.507L354.843 92.0066L379.561 56.2923C396.067 32.8059 381.55 30.8654 348.03 31.0066H299H250.5H241.186H219.672H176.5Z" fill="#FCD9BD"/>
<path d="M323 42.0066H372.03C405.55 41.8654 420.067 43.8059 403.561 67.2923L378.843 103.007L369.5 116.507L234 162" stroke="#FF5A1F" stroke-width="5" stroke-linecap="round"/>
<path d="M179 12.0102H212.506H227.01C279.214 11.7902 300.996 14.8149 275.289 51.4237L273.732 53.6759C306.386 42.2512 329.866 64.2293 306.672 98.7312C283.477 133.233 254.159 119.059 252.431 84.4806L192.603 171" stroke="#E74694" stroke-width="10" stroke-linecap="round" stroke-linejoin="round"/>
</svg>
