<svg width="96" height="66" viewBox="0 0 96 66" fill="none" xmlns="http://www.w3.org/2000/svg">
<path d="M28.6 58.3C24.1 58.3 19.9 55.9 17.7 52L10.3 39.2C7.99998 35.3 7.99998 30.5 10.3 26.6L17.7 13.8C20 9.90002 24.1 7.50003 28.6 7.50003H31.9L35.7 0.900024H24.8C20.3 0.900024 16.1 3.30004 13.9 7.20004L2.69998 26.6C0.399975 30.5 0.399975 35.3 2.69998 39.2L13.9 58.6C16.2 62.5 20.3 64.9 24.8 64.9H35.7L31.9 58.3H28.6Z" fill="#BC4094"/>
<path d="M94.2 26.9L83 7.5C80.7 3.6 76.6 1.20001 72.1 1.20001H53.3H49.6C45.1 1.20001 40.9 3.6 38.7 7.5L38.5 7.79999L27.5 26.9C26.4 28.7 25.9 30.8 25.8 32.9V33C25.8 35.3 26.3 37.6 27.5 39.6L38.5 58.7L38.7 59C41 62.9 45.1 65.3 49.6 65.3H53.3H72.1C76.6 65.3 80.8 62.9 83 59L94.2 39.6C96.5 35.7 96.5 30.8 94.2 26.9Z" fill="#5D4695"/>
<path d="M87.6 37.9L78.7 53.3C76.9 56.4 73.6 58.3 70 58.3H55.1H52.2C48.6 58.3 45.3 56.4 43.5 53.3L43.4 53.1L34.6 37.9C33.7 36.3 33.2 34.5 33.3 32.7C33.3 32.7 33.3 32.7 33.3 32.6C33.3 31 33.8 29.3 34.6 27.9L43.4 12.7L43.5 12.5C45.3 9.4 48.6 7.5 52.2 7.5H55.1H70C73.6 7.5 76.9 9.4 78.7 12.5L87.6 27.9C89.4 31 89.4 34.8 87.6 37.9Z" fill="#5D4695"/>
<path d="M44.4 13C43.9 13.5 43.4 14.1 43 14.8L42.9 15L34.9 28.9C34.1 30.2 33.7 31.7 33.7 33.2C33.7 33.2 33.7 33.2 33.7 33.3C33.7 34.9 34.1 36.6 34.9 38.1L42.9 52L43 52.2C43.4 52.8 43.8 53.4 44.3 53.9L58.2 33.4L44.4 13Z" fill="#E8E0EC"/>
<path d="M87 30.2C86.8 29 86.5 27.8 85.9 26.8L77.8 12.7C76.2 9.90004 73.1 8.10004 69.9 8.10004H56.3H53.6C51.9 8.10004 50.3 8.60002 48.9 9.40002L62.9 30.1H87V30.2Z" fill="white"/>
<path d="M48.8 56.9C50.2 57.8 51.9 58.3 53.6 58.3H56.3H69.9C73.2 58.3 76.2 56.6 77.8 53.7L85.9 39.6C86.5 38.5 86.8 37.4 87 36.2H62.8L48.8 56.9Z" fill="#BB9AC9"/>
</svg>
